HIERARCHY
ROOT pelvis
{
  OFFSET 0 100 0
  CHANNELS 6 Xposition Yposition Zposition Zrotation Xrotation Yrotation
  JOINT pelvis_right_femur
  {
    OFFSET -10.78128 -3.44521 -0.5502486
    CHANNELS 3 Zrotation Xrotation Yrotation
    JOINT right_femur_tibia
    {
      OFFSET -0.8047443 -44.0398 -0.1307829
      CHANNELS 3 Zrotation Xrotation Yrotation
      JOINT right_tibia_foot
      {
        OFFSET 3.006224 -47.83518 -5
        CHANNELS 3 Zrotation Xrotation Yrotation
        End Site
        {
          OFFSET 0 -5 15
        }
      }
    }
  }
  JOINT pelvis_left_femur
  {
    OFFSET 10.78128 -3.44521 -0.5502486
    CHANNELS 3 Zrotation Xrotation Yrotation
    JOINT left_femur_tibia
    {
      OFFSET 0.8047443 -44.0398 -0.1307829
      CHANNELS 3 Zrotation Xrotation Yrotation
      JOINT left_tibia_foot
      {
        OFFSET -4.370144 -48.10324 -4.275266
        CHANNELS 3 Zrotation Xrotation Yrotation
        End Site
        {
          OFFSET 0 -5 15
        }
      }
    }
  }
  JOINT pelvis_spine1
  {
    OFFSET 0 6.468898 -3.129235
    CHANNELS 3 Zrotation Xrotation Yrotation
    JOINT spine1
    {
      OFFSET 0 23.15396 4.99043
      CHANNELS 3 Zrotation Xrotation Yrotation
      JOINT spine2
      {
        OFFSET 0 20.79997 -5.064912
        CHANNELS 3 Zrotation Xrotation Yrotation
        JOINT neck
        {
          OFFSET 0 14.38658 9.616178
          CHANNELS 3 Zrotation Xrotation Yrotation
          End Site
          {
            OFFSET 0 20 0
          }
        }
      }
      JOINT right_manubrium
      {
        OFFSET -5.722621 16.35077 3.967754
        CHANNELS 3 Zrotation Xrotation Yrotation
        JOINT right_clavicle
        {
          OFFSET -13.16364 1.694482 -4.693211
          CHANNELS 3 Zrotation Xrotation Yrotation
          JOINT right_humerus
          {
            OFFSET -28.5034 -0.3100689 -2.792744
            CHANNELS 3 Zrotation Xrotation Yrotation
            JOINT right_radius
            {
              OFFSET -25.15693 0.02248979 -1.271978
              CHANNELS 3 Zrotation Xrotation Yrotation
              End Site
              {
                OFFSET -15 0 0
              }
            }
          }
        }
      }
      JOINT left_manubrium
      {
        OFFSET 5.722621 16.35077 3.967754
        CHANNELS 3 Zrotation Xrotation Yrotation
        JOINT left_clavicle
        {
          OFFSET 13.16364 1.694482 -4.693211
          CHANNELS 3 Zrotation Xrotation Yrotation
          JOINT left_humerus
          {
            OFFSET 29.39168 -1.063119 -2.237045
            CHANNELS 3 Zrotation Xrotation Yrotation
            JOINT left_radius
            {
              OFFSET 24.59957 -0.9528479 0.9047498
              CHANNELS 3 Zrotation Xrotation Yrotation
              End Site
              {
                OFFSET 15 -0 -0
              }
            }
          }
        }
      }
    }
  }
}
MOTION
Frames: 13
Frame Time: 0.0416666666667
0 103.5113 0 2.182077 -1.221283 0.291931 1.248039 -10.05036 8.758651 -0 34.84077 -0 -5.277903 -17.9994 -2.452873 -8.032886 10.1091 -23.52239 -0 5.120064 -0 7.689464 -16.14106 26.58929 -4.329194 -5.053591 4.934435 1.998195 9.220967 -7.756192 0.8323307 22.8276 7.175857 3.246578 -23.1061 8.814175 6.373733 -19.77529 11.57252 86.3167 35.95053 -19.7836 -0 0 16.26542 -7.576437 8.243392 4.623772 5.473363 -19.48396 -1.694654 -94.78343 29.74773 22.96333 0 0 -15.97008 3.501606 17.90176 9.568898
0.3179551 103.503 1.344217 2.020946 -1.128145 0.4927829 1.534953 -11.02492 8.663292 -0 34.79534 -0 -5.344674 -17.64675 -2.548416 -7.879943 10.26482 -23.41638 -0 5.146391 -0 7.560973 -16.40886 26.43337 -4.253768 -4.849461 4.856207 2.071445 9.197697 -7.796851 0.8416152 22.73258 7.198318 3.264366 -23.25122 8.842524 6.368774 -19.74267 11.57186 86.30985 35.9391 -19.82842 -0 0 16.15789 -7.611988 8.278542 4.649386 5.523664 -19.5456 -1.694154 -94.65509 29.69955 22.81143 0 0 -16.28775 3.582857 17.81006 9.529456
0.6320138 103.4359 2.796795 1.795232 -0.9306749 0.6003117 1.91292 -12.49054 8.404341 -0 33.54933 -0 -5.42014 -16.98119 -2.392742 -7.687198 10.45714 -23.20109 -0 5.233404 -0 7.34603 -16.85091 26.16641 -4.179026 -4.54826 4.809766 2.232385 9.141853 -7.82058 0.8596103 22.5524 7.226995 3.304925 -23.46197 8.863068 6.353525 -19.64659 11.58224 86.30723 35.92578 -19.94441 -0 0 15.92162 -7.659456 8.336502 4.667173 5.66846 -19.66021 -1.693645 -94.40753 29.61283 22.42741 0 0 -16.94103 3.746159 17.67901 9.401223
0.9604015 103.2558 4.434192 1.56077 -0.5882999 0.5898633 2.272738 -14.33418 7.929725 -0 30.40229 -0 -5.470037 -15.88075 -1.840578 -7.530224 10.67523 -22.84296 -0 5.440821 -0 7.032043 -17.48856 25.74879 -4.138408 -4.186364 4.85435 2.477606 9.04092 -7.779633 0.9078102 22.2937 7.250869 3.380416 -23.72116 8.877428 6.292194 -19.43165 11.60205 86.33862 35.91072 -20.17889 -0 0 15.51185 -7.716827 8.421585 4.668053 5.937111 -19.84585 -1.691285 -94.01363 29.48668 21.73956 0 0 -17.99954 3.995937 17.51261 9.153109
1.315769 102.8838 6.319134 1.402573 -0.1279149 0.5319633 2.455618 -16.30595 7.323026 -0 25.34152 -0 -5.464674 -14.36106 -0.9070127 -7.473458 10.92801 -22.33938 -0 5.853347 -0 6.602677 -18.25798 25.14037 -4.155891 -3.826033 4.987334 2.746293 8.92246 -7.660203 0.9827672 22.01503 7.260229 3.473523 -24.00316 8.889545 6.163658 -19.11881 11.60163 86.4272 35.89074 -20.50693 -0 0 14.96071 -7.790018 8.534197 4.663691 6.319458 -20.11875 -1.660797 -93.48116 29.33277 20.79704 0 0 -19.35489 4.286564 17.312 8.820117
1.701644 102.2988 8.488734 1.357805 0.4408364 0.4892044 2.429557 -18.13506 6.5961 -0 18.85614 -0 -5.408669 -12.58592 0.2705136 -7.525296 11.22965 -21.68376 -0 6.511761 -0 6.025093 -19.06377 24.29201 -4.227789 -3.533137 5.135935 2.969294 8.785429 -7.524678 1.048607 21.78513 7.276826 3.566056 -24.26209 8.901607 5.967741 -18.79392 11.53167 86.58308 35.86893 -20.85817 -0 0 14.32648 -7.881932 8.675343 4.672213 6.761394 -20.44998 -1.599954 -92.84328 29.15572 19.7153 0 0 -20.79852 4.572543 17.08146 8.479881
2.112232 101.5432 10.99518 1.391581 1.098166 0.5178996 2.287328 -19.57145 5.766634 -0 11.81272 -0 -5.342287 -10.82395 1.515624 -7.643117 11.58474 -20.87149 -0 7.498138 -0 5.244377 -19.77953 23.17488 -4.295556 -3.33482 5.218719 3.117233 8.631751 -7.453143 1.073106 21.62723 7.322302 3.644672 -24.46765 8.911161 5.727762 -18.46665 11.3877 86.84417 35.84614 -21.22568 -0 0 13.63466 -7.987003 8.850839 4.704174 7.163757 -20.79247 -1.560252 -92.16026 28.95904 18.6231 0 0 -22.09484 4.815621 16.82349 8.216467
2.530746 100.6973 13.94088 1.41403 1.789471 0.7129999 2.187776 -20.36274 4.930635 -0 5.366326 -0 -5.338482 -9.37772 2.65136 -7.737326 11.97744 -19.90951 -0 9.003864 -0 4.179866 -20.21127 21.78077 -4.25277 -3.230384 5.184688 3.203091 8.475188 -7.499484 1.046757 21.51656 7.394609 3.700168 -24.61883 8.905839 5.489034 -18.06513 11.21754 87.25796 35.8186 -21.66561 -0 0 12.87845 -8.100803 9.069621 4.76369 7.393753 -21.08944 -1.615245 -91.52251 28.74687 17.66401 0 0 -23.00774 4.980445 16.53489 8.100437
2.933865 99.90651 17.42873 1.342253 2.443642 1.149057 2.234356 -20.21716 4.231678 -0 0.6675333 -0 -5.497254 -8.420864 3.511157 -7.677429 12.34766 -18.82336 -0 11.32408 -0 2.737084 -20.04362 20.09208 -4.003564 -3.262692 5.028565 3.238348 8.297549 -7.669481 0.9765116 21.43747 7.465788 3.726483 -24.72076 8.855958 5.30289 -17.60927 11.04898 87.77942 35.78928 -22.15573 -0 0 12.08176 -8.245299 9.33417 4.863374 7.33967 -21.253 -1.755984 -91.03946 28.51384 17.02738 0 0 -23.33164 5.037609 16.20842 8.171763
3.31082 99.33299 21.50214 1.108608 3.047775 1.790298 2.432094 -18.94296 3.746639 0 -1.750329 0 -5.875606 -7.921151 3.99392 -7.379205 12.52351 -17.66748 -0 14.74068 -0 0.8969679 -18.90317 18.15748 -3.476274 -3.449307 4.77164 3.233393 8.100337 -7.925718 0.8499966 21.37347 7.519188 3.701833 -24.7546 8.735111 5.179067 -17.1161 10.90679 88.36022 35.76361 -22.65477 -0 0 11.26869 -8.4402 9.644434 5.009798 6.992427 -21.22907 -1.963412 -90.78882 28.25951 16.81699 0 0 -23.00571 4.97968 15.84368 8.437027
3.667602 99.10244 26.1279 0.7140409 3.486237 2.476237 2.7716 -16.57524 3.503854 0 -2.224611 0 -6.433306 -7.87426 4.143989 -6.917951 12.2502 -16.50291 -0 19.55436 -0 -1.216538 -16.5078 16.13346 -2.674778 -3.739256 4.51317 3.189766 7.937088 -8.163221 0.6608973 21.33666 7.545918 3.611826 -24.67041 8.531981 5.091305 -16.61449 10.83585 88.92941 35.7488 -23.07568 -0 0 10.50282 -8.710431 9.99565 5.216204 6.420643 -20.9978 -2.214218 -90.80256 27.98192 17.04485 0 0 -22.11854 4.814935 15.44432 8.862144
4.016768 99.27806 31.19933 0.2735938 3.54033 2.960177 3.204361 -13.26482 3.471934 0 -1.727897 0 -7.044145 -8.39016 4.1313 -6.500641 11.19986 -15.36408 -0 26.0659 -0 -3.332456 -12.83304 14.27257 -1.721621 -4.011607 4.437958 3.095973 7.900823 -8.219594 0.4236549 21.37275 7.532895 3.462715 -24.41472 8.243731 5.026851 -16.15516 10.90329 89.39294 35.75693 -23.28672 -0 0 9.873274 -9.08659 10.38008 5.501527 5.724636 -20.58988 -2.47297 -91.05375 27.67468 17.64127 0 0 -20.87223 4.563287 15.01743 9.374003
4.365922 99.85436 36.54441 0.02585094 3.059681 3.031263 3.521694 -8.993915 3.509427 0 -1.24769 0 -7.561671 -9.584601 4.142034 -6.282981 8.976664 -14.22671 -0 34.33805 -0 -5.080135 -8.374258 12.86465 -0.8932157 -4.113761 4.752112 2.928359 8.067457 -7.949244 0.1761127 21.53721 7.450757 3.283798 -23.98544 7.860444 5.053247 -15.798 11.1662 89.66289 35.80618 -23.15801 -0 0 9.429301 -9.594979 10.79135 5.874552 4.98585 -20.12688 -2.692397 -91.43255 27.33249 18.45357 0 0 -19.52606 4.260271 14.57727 9.872132
